<?xml version="1.0" encoding="iso-8859-1"?>
<!-- Generator: Adobe Illustrator 19.0.0, SVG Export Plug-In . SVG Version: 6.00 Build 0)  -->
<svg version="1.1" id="Layer_1" xmlns="http://www.w3.org/2000/svg" xmlns:xlink="http://www.w3.org/1999/xlink" x="0px" y="0px"
	 viewBox="0 0 502.4 502.4" style="enable-background:new 0 0 502.4 502.4;" xml:space="preserve">
<g>
	<g>
		<path d="M481.067,60.267H21.333C9.6,60.267,0,69.867,0,81.6v339.2c0,11.733,9.6,21.333,21.333,21.333H480
			c11.733,0,21.333-9.6,22.4-20.267V81.6C502.4,69.867,493.867,60.267,481.067,60.267z M459.733,400.533H41.6V101.867h418.133
			V400.533z"/>
	</g>
</g>
<g>
	<g>
		<path d="M315.733,317.333H185.6c-11.733,0-21.333,9.6-21.333,21.333c0,11.733,9.6,21.333,21.333,21.333h130.133
			c11.733,0,21.333-9.6,21.333-21.333S327.467,317.333,315.733,317.333z"/>
	</g>
</g>
<g>
	<g>
		<path d="M158.933,246.933h-54.4V212.8H153.6c2.133,0,3.2-1.067,4.267-2.133s2.133-3.2,2.133-4.267s-1.067-3.2-2.133-4.267
			s-3.2-2.133-4.267-2.133h-49.067v-34.133h54.4c2.133,0,3.2-1.067,4.267-2.133c1.067-1.067,2.133-3.2,2.133-4.267
			s-1.067-3.2-2.133-4.267c-1.067-1.067-3.2-2.133-4.267-2.133H97.067c-2.133,0-3.2,1.067-5.333,2.133
			c-1.067,1.067-2.133,3.2-2.133,5.333v93.867c0,2.133,1.067,3.2,2.133,5.333c2.133-1.066,4.267,0.001,5.333,0.001h61.867
			c2.133,0,3.2-1.067,4.267-2.133c1.067-1.067,2.133-3.2,2.133-4.267s-1.067-3.2-2.133-4.267
			C162.133,248,160,246.933,158.933,246.933z"/>
	</g>
</g>
<g>
	<g>
		<path d="M233.6,206.4l35.2-43.733c1.067-1.067,1.067-2.133,1.067-4.267c0-2.133-1.067-3.2-2.133-4.267
			c-1.067-1.067-3.2-2.133-5.333-2.133c-2.133,0-3.2,1.067-4.267,2.133l-32,41.6l-32-41.6c-1.067-2.133-3.2-3.2-5.333-3.2
			s-4.267,1.067-5.333,2.133c-1.067,1.067-2.133,3.2-2.133,4.267c0,2.133,0,3.2,1.067,4.267l35.2,43.733l-35.2,43.733
			c-1.067,2.133-2.133,3.2-2.133,5.333c0,2.133,1.067,3.2,2.133,4.267c1.067,1.067,3.2,2.133,4.267,2.133
			c2.133,0,3.2-1.067,5.333-3.2l32-41.6l33.067,41.6c1.067,2.133,3.2,3.2,6.4,3.2c2.133,0,3.2-1.067,4.267-2.133
			c1.067-1.067,2.133-3.2,2.133-4.267c0-2.133,0-3.2-1.067-4.267L233.6,206.4z"/>
	</g>
</g>
<g>
	<g>
		<path d="M304,153.067c-1.067-1.067-3.2-2.133-5.333-2.133c-2.133,0-3.2,1.067-5.333,2.133c-1.067,1.067-2.133,3.2-2.133,5.333
			v94.933c0,2.133,1.067,3.2,2.133,5.333c2.133,1.067,3.2,2.133,5.333,2.133c2.133,0,3.2-1.067,5.333-2.133
			c1.067-1.067,2.133-3.2,2.133-5.333V158.4C306.133,156.266,305.067,155.2,304,153.067z"/>
	</g>
</g>
<g>
	<g>
		<path d="M410.667,154.133c-1.067-1.067-3.2-2.133-4.267-2.133h-76.8c-2.133,0-3.2,1.067-4.267,2.133
			c-1.067,1.067-2.133,3.2-2.133,4.267c0,1.067,1.067,3.2,2.133,4.267c1.067,2.133,2.133,2.133,4.267,2.133h30.933v88.533
			c0,2.133,1.067,3.2,2.133,5.333c1.067,1.067,3.2,2.133,5.333,2.133c2.133,0,3.2-1.067,5.333-2.133
			c1.067-1.067,2.133-3.2,2.133-5.333V164.8H406.4c2.133,0,3.2-1.067,4.267-2.133c1.067-1.067,2.133-3.2,2.133-4.267
			C412.8,157.333,411.733,155.2,410.667,154.133z"/>
	</g>
</g>
<g>
</g>
<g>
</g>
<g>
</g>
<g>
</g>
<g>
</g>
<g>
</g>
<g>
</g>
<g>
</g>
<g>
</g>
<g>
</g>
<g>
</g>
<g>
</g>
<g>
</g>
<g>
</g>
<g>
</g>
</svg>
