<?xml version="1.0" encoding="iso-8859-1"?>
<!-- Generator: Adobe Illustrator 16.0.0, SVG Export Plug-In . SVG Version: 6.00 Build 0)  -->
<!DOCTYPE svg PUBLIC "-//W3C//DTD SVG 1.1//EN" "http://www.w3.org/Graphics/SVG/1.1/DTD/svg11.dtd">
<svg xmlns="http://www.w3.org/2000/svg" xmlns:xlink="http://www.w3.org/1999/xlink" version="1.1" id="Capa_1" x="0px" y="0px" width="512px" height="512px" viewBox="0 0 567.587 567.587" style="enable-background:new 0 0 567.587 567.587;" xml:space="preserve">
<g>
	<g>
		<path fill="#fff" d="M519.635,406.928c0,5.703-4.754,10.283-10.67,10.283H364.223c-51.509,0-70.211,23.282-70.211,23.282l-2.368,3.175    l-1.11,1.544c-0.009,0-0.009,0-0.009,0c-4.91,6.662-12.135,0.053-12.17,0.018l-3.331-4.164    c-2.472-2.967-21.391-23.854-67.175-23.854H58.618c-5.89,0-10.648-4.598-10.648-10.283V99.04c0-5.686,4.758-10.288,10.648-10.288    h115.856c86.177,0,94.339,48.95,94.903,63.172v214.121c0,15.562,7.417,18.485,11.598,18.919h6.228    c4.26-0.434,11.043-2.967,11.043-15.111V149.161h-0.069c0.642-17.809,7.581-60.418,59.42-60.418h151.369    c5.916,0,10.67,4.602,10.67,10.288V406.928L519.635,406.928z M557.994,149.161h-0.503c-9.741,0.065-11.251-8.393-11.416-12.318    V75.437c0-6.553-5.309-11.867-11.849-11.867H358.655c-44.049,0-60.479,16.326-64.556,21.452l-1.119,1.553l-0.009,0.026    l-3.47,4.763c-0.018,0-0.018,0-0.018,0c-4.658,6.406-8.717,3.678-10.678,1.583l-6.645-8.289l-3.288-3.964    c-5.517-5.799-19.917-17.124-48.456-17.124H33.375c-6.558,0-11.867,5.313-11.867,11.867v60.626    c0,10.613-5.764,12.743-9.304,13.099H9.576C6.701,149.339,0,151.009,0,163.331v288.942c0,7.078,5.751,12.82,12.838,12.82h170.705    c54.458,0,78.192,20.541,85.305,28.418l4.06,5.031h0.009c0,0,10.895,12.317,22.372,0l0,0l2.386-2.793l0,0l0.034-0.018l3.036-3.557    c0.087-0.104,0.815-0.92,1.874-1.995c9.091-8.848,31.801-25.087,76.214-25.087H554.75c7.096,0,12.838-5.742,12.838-12.82v-291.74    C567.587,150.085,560.024,149.217,557.994,149.161L557.994,149.161z" fill="#006DF0"/>
	</g>
</g>
<g>
</g>
<g>
</g>
<g>
</g>
<g>
</g>
<g>
</g>
<g>
</g>
<g>
</g>
<g>
</g>
<g>
</g>
<g>
</g>
<g>
</g>
<g>
</g>
<g>
</g>
<g>
</g>
<g>
</g>
</svg>
